<svg xmlns="http://www.w3.org/2000/svg" viewBox="0 0 613.76 349.9"><title>dsgraphics-logo-full</title><path d="M115.14,409.53V334.32h11a10.34,10.34,0,0,1,4.29.92,10.49,10.49,0,0,1,3.53,2.61,13.75,13.75,0,0,1,2.44,4,12.9,12.9,0,0,1,.9,4.8v50.45A13.07,13.07,0,0,1,134,406a11.4,11.4,0,0,1-3.57,2.64,9.86,9.86,0,0,1-4.27,1h-11Zm3.92-4.11h7.16a6.76,6.76,0,0,0,5.16-2.35,7.91,7.91,0,0,0,2.08-5.49V346.12a7.73,7.73,0,0,0-2.1-5.44,6.83,6.83,0,0,0-5.15-2.29H119v67Z" transform="translate(-115.13 -114.52)" fill="#1a1a1a"/><path d="M164.33,409.53V379h-14.4v30.57H146v-63.4a13.49,13.49,0,0,1,.86-4.82,12.49,12.49,0,0,1,2.42-4,11.21,11.21,0,0,1,3.52-2.64,9.93,9.93,0,0,1,4.27-.92,10.33,10.33,0,0,1,4.29.92,10.47,10.47,0,0,1,3.54,2.61,13.75,13.75,0,0,1,2.44,4,12.89,12.89,0,0,1,.9,4.8v63.4h-3.92Zm-7.25-71.64a6.68,6.68,0,0,0-5.12,2.34,7.82,7.82,0,0,0-2,5.43v29.22h14.4V345.62a7.73,7.73,0,0,0-2.09-5.44,6.83,6.83,0,0,0-5.18-2.3Z" transform="translate(-115.13 -114.52)" fill="#1a1a1a"/><path d="M195.94,409.53V345.62a7.73,7.73,0,0,0-2.1-5.44,6.83,6.83,0,0,0-5.15-2.29,6.69,6.69,0,0,0-5.12,2.3,7.83,7.83,0,0,0-2,5.43v63.91h-3.92v-63.4a13.48,13.48,0,0,1,.86-4.82,12.5,12.5,0,0,1,2.42-4,11.21,11.21,0,0,1,3.52-2.64,9.94,9.94,0,0,1,4.27-.92,10.33,10.33,0,0,1,4.29.92,10.45,10.45,0,0,1,3.53,2.61,13.75,13.75,0,0,1,2.44,4,12.88,12.88,0,0,1,.9,4.8v63.4H196Z" transform="translate(-115.13 -114.52)" fill="#1a1a1a"/><rect x="94.82" y="219.75" width="3.92" height="75.25" fill="#1a1a1a"/><polygon points="108.84 295.01 108.84 219.76 131.08 219.76 131.08 223.87 112.76 223.87 112.76 255.27 128.79 255.27 128.79 259.38 112.76 259.38 112.76 290.89 131.08 290.89 131.08 295.01 108.84 295.01" fill="#1a1a1a"/><polygon points="138.88 295.01 138.88 219.76 142.8 219.76 142.8 290.89 161.12 290.89 161.12 295.01 138.88 295.01" fill="#1a1a1a"/><path d="M299.93,410a9.52,9.52,0,0,1-4.25-1,12.29,12.29,0,0,1-3.56-2.66,11.89,11.89,0,0,1-2.41-3.91,13.72,13.72,0,0,1-.86-4.92v-2.26h3.9V398a8,8,0,0,0,2,5.47,6.62,6.62,0,0,0,5.13,2.37,6.76,6.76,0,0,0,5.17-2.35,7.91,7.91,0,0,0,2.08-5.49,11.1,11.1,0,0,0-.31-2.29,36.23,36.23,0,0,0-1.43-4.39L291,354.07c-.83-2.22-1.39-3.91-1.68-5a11.64,11.64,0,0,1-.41-2.91,13.44,13.44,0,0,1,.86-4.82,12.52,12.52,0,0,1,2.42-4,11.22,11.22,0,0,1,3.52-2.64,9.94,9.94,0,0,1,4.27-.92,10.32,10.32,0,0,1,4.29.92,10.47,10.47,0,0,1,3.54,2.61,13.73,13.73,0,0,1,2.44,4,12.9,12.9,0,0,1,.9,4.8v2.36h-3.92v-2.86a7.73,7.73,0,0,0-2.1-5.44,6.83,6.83,0,0,0-5.15-2.29,6.69,6.69,0,0,0-5.17,2.37,7.82,7.82,0,0,0-2,5.43,9.77,9.77,0,0,0,.37,2.34c.23.91.71,2.33,1.46,4.34L309,389.68c.83,2.23,1.4,3.92,1.68,5a11.69,11.69,0,0,1,.41,2.91,13.1,13.1,0,0,1-3.28,8.8,11.38,11.38,0,0,1-3.57,2.64A9.88,9.88,0,0,1,299.93,410Z" transform="translate(-115.13 -114.52)" fill="#1a1a1a"/><path d="M338.13,409.53V379h-14.4v30.57h-3.91v-63.4a13.44,13.44,0,0,1,.86-4.82,12.51,12.51,0,0,1,2.42-4,11.21,11.21,0,0,1,3.52-2.64,9.93,9.93,0,0,1,4.27-.92,10.33,10.33,0,0,1,4.29.92,10.47,10.47,0,0,1,3.53,2.61,13.71,13.71,0,0,1,2.44,4,12.89,12.89,0,0,1,.9,4.8v63.4h-3.92Zm-7.28-71.65a6.68,6.68,0,0,0-5.12,2.3,7.82,7.82,0,0,0-2,5.43v29.22h14.4V345.62a7.72,7.72,0,0,0-2.1-5.44A6.83,6.83,0,0,0,330.85,337.88Zm6.32-11.4a2,2,0,0,1-1.61-.67,2.67,2.67,0,0,1-.67-1.89,2.58,2.58,0,0,1,.69-1.87,2.15,2.15,0,0,1,3-.14l.14.14a2.58,2.58,0,0,1,.69,1.86,2.68,2.68,0,0,1-.67,1.89,2,2,0,0,1-1.55.68Zm-12.64,0a2,2,0,0,1-1.58-.7,2.84,2.84,0,0,1,0-3.72,2.15,2.15,0,0,1,3-.14l.14.14a2.84,2.84,0,0,1,0,3.72,2,2,0,0,1-1.54.7Z" transform="translate(-115.13 -114.52)" fill="#1a1a1a"/><path d="M369.65,409.53V345.62a7.72,7.72,0,0,0-2.1-5.44,6.82,6.82,0,0,0-5.15-2.29,6.68,6.68,0,0,0-5.12,2.3,7.82,7.82,0,0,0-2,5.43v63.91h-3.92v-63.4a13.48,13.48,0,0,1,.86-4.82,12.47,12.47,0,0,1,2.42-4,11.2,11.2,0,0,1,3.52-2.64,9.92,9.92,0,0,1,4.27-.92,10.33,10.33,0,0,1,4.29.92,10.45,10.45,0,0,1,3.53,2.61,13.72,13.72,0,0,1,2.44,4,12.87,12.87,0,0,1,.9,4.8v63.4h-3.92Z" transform="translate(-115.13 -114.52)" fill="#1a1a1a"/><path d="M394,410a9.5,9.5,0,0,1-4.25-1,12.3,12.3,0,0,1-3.56-2.66,11.91,11.91,0,0,1-2.41-3.91,13.76,13.76,0,0,1-.86-4.92V346.12a13.49,13.49,0,0,1,.86-4.82,12.53,12.53,0,0,1,2.42-4,11.22,11.22,0,0,1,3.52-2.64,9.92,9.92,0,0,1,4.27-.92,10.33,10.33,0,0,1,4.29.92,10.46,10.46,0,0,1,3.53,2.61,13.74,13.74,0,0,1,2.44,4,12.9,12.9,0,0,1,.9,4.8v2.36h-3.92v-2.86a7.72,7.72,0,0,0-2.1-5.44,6.83,6.83,0,0,0-5.15-2.29,6.68,6.68,0,0,0-5.12,2.3,7.83,7.83,0,0,0-2,5.43v52.51a8,8,0,0,0,2,5.47,6.62,6.62,0,0,0,5.13,2.37,6.76,6.76,0,0,0,5.16-2.35,7.91,7.91,0,0,0,2.08-5.49V378.75h-4.58v-4.11h8.5v22.94a13,13,0,0,1-3.33,8.82,11.37,11.37,0,0,1-3.57,2.64A9.9,9.9,0,0,1,394,410Z" transform="translate(-115.13 -114.52)" fill="#1a1a1a"/><polygon points="299.03 295.01 299.03 219.76 321.27 219.76 321.27 223.87 302.95 223.87 302.95 255.27 318.99 255.27 318.99 259.38 302.95 259.38 302.95 290.89 321.27 290.89 321.27 295.01 299.03 295.01" fill="#1a1a1a"/><path d="M462.53,409.53v-28.4a7.72,7.72,0,0,0-2.1-5.44,6.82,6.82,0,0,0-5.15-2.29h-7.11v36.1h-3.92V334.29h11a10.34,10.34,0,0,1,4.29.92,10.49,10.49,0,0,1,3.53,2.61,13.73,13.73,0,0,1,2.44,4,12.88,12.88,0,0,1,.9,4.8v14.93a11.39,11.39,0,0,1-.32,2.68,10.89,10.89,0,0,1-.92,2.49,12.28,12.28,0,0,1-1.39,2.12,4.93,4.93,0,0,1-1.36,1.21l-2.19,1.2,2.12,1.33a8.44,8.44,0,0,1,2.81,3.45,11.28,11.28,0,0,1,1.26,5.08v28.39h-3.91Zm-14.36-40.22h7.16A6.76,6.76,0,0,0,460.5,367a7.91,7.91,0,0,0,2.08-5.49V346.12a7.72,7.72,0,0,0-2.1-5.44,6.82,6.82,0,0,0-5.15-2.29h-7.15Z" transform="translate(-115.13 -114.52)" fill="#1a1a1a"/><polygon points="367.83 295.37 379.17 251.81 380.79 251.81 369.46 295.37 367.83 295.37" fill="#1a1a1a"/><path d="M516.72,410a9.51,9.51,0,0,1-4.25-1,12.29,12.29,0,0,1-3.56-2.66,11.89,11.89,0,0,1-2.41-3.91,13.75,13.75,0,0,1-.86-4.92V346.12a13.47,13.47,0,0,1,.86-4.82,12.51,12.51,0,0,1,2.42-4,11.21,11.21,0,0,1,3.52-2.64,9.92,9.92,0,0,1,4.27-.92,10.33,10.33,0,0,1,4.29.92,10.44,10.44,0,0,1,3.53,2.61,13.72,13.72,0,0,1,2.44,4,12.88,12.88,0,0,1,.9,4.8v2.36H524v-2.86a7.72,7.72,0,0,0-2.1-5.44,6.82,6.82,0,0,0-5.15-2.29,6.68,6.68,0,0,0-5.12,2.3,7.82,7.82,0,0,0-2,5.43v52.51a8,8,0,0,0,2,5.47,6.62,6.62,0,0,0,5.13,2.37,6.75,6.75,0,0,0,5.16-2.35,7.9,7.9,0,0,0,2.08-5.49V378.75h-4.58v-4.11h8.5v22.94a13.12,13.12,0,0,1-3.33,8.84,11.36,11.36,0,0,1-3.57,2.64A9.89,9.89,0,0,1,516.72,410Z" transform="translate(-115.13 -114.52)" fill="#1a1a1a"/><path d="M555.21,409.53v-28.4a7.72,7.72,0,0,0-2.1-5.44A6.82,6.82,0,0,0,548,373.4H540.8v36.1h-3.92V334.29h11a10.33,10.33,0,0,1,4.29.92,10.47,10.47,0,0,1,3.53,2.61,13.75,13.75,0,0,1,2.44,4,12.89,12.89,0,0,1,.9,4.8v14.93a11.41,11.41,0,0,1-.32,2.68,10.93,10.93,0,0,1-.92,2.49,12.36,12.36,0,0,1-1.39,2.12,4.93,4.93,0,0,1-1.35,1.21l-2.19,1.2L555,372.6a8.44,8.44,0,0,1,2.82,3.45,11.28,11.28,0,0,1,1.26,5.08v28.39h-3.88Zm-14.4-40.22H548a6.75,6.75,0,0,0,5.16-2.35,7.91,7.91,0,0,0,2.08-5.49V346.12a7.73,7.73,0,0,0-2.1-5.44,6.82,6.82,0,0,0-5.15-2.29H540.8v30.92Z" transform="translate(-115.13 -114.52)" fill="#1a1a1a"/><path d="M586.63,409.53V379h-14.4v30.57H568.3v-63.4a13.47,13.47,0,0,1,.86-4.82,12.51,12.51,0,0,1,2.42-4,11.21,11.21,0,0,1,3.52-2.64,9.93,9.93,0,0,1,4.27-.92,10.33,10.33,0,0,1,4.29.92,10.47,10.47,0,0,1,3.54,2.61,13.71,13.71,0,0,1,2.44,4,12.88,12.88,0,0,1,.9,4.8v63.4h-3.92Zm-7.25-71.64a6.69,6.69,0,0,0-5.12,2.3,7.82,7.82,0,0,0-2,5.43v29.22h14.4V345.62a7.72,7.72,0,0,0-2.1-5.44,6.83,6.83,0,0,0-5.16-2.3Z" transform="translate(-115.13 -114.52)" fill="#1a1a1a"/><path d="M599.91,409.53V334.32h11a10.34,10.34,0,0,1,4.29.92,10.49,10.49,0,0,1,3.53,2.61,13.74,13.74,0,0,1,2.44,4,12.9,12.9,0,0,1,.9,4.8v20.18a13.11,13.11,0,0,1-3.33,8.84,11.37,11.37,0,0,1-3.57,2.64,9.87,9.87,0,0,1-4.27,1h-7.16V409.6h-3.92Zm3.92-34.38H611a6.76,6.76,0,0,0,5.16-2.35,7.91,7.91,0,0,0,2.08-5.49V346.12a7.73,7.73,0,0,0-2.1-5.44,6.83,6.83,0,0,0-5.15-2.29h-7.16v36.75Z" transform="translate(-115.13 -114.52)" fill="#1a1a1a"/><polygon points="533.06 295.01 533.06 259.38 518.66 259.38 518.66 295.01 514.74 295.01 514.74 219.76 518.66 219.76 518.66 255.27 533.06 255.27 533.06 219.76 536.98 219.76 536.98 295.01 533.06 295.01" fill="#1a1a1a"/><rect x="547.16" y="219.75" width="3.92" height="75.25" fill="#1a1a1a"/><path d="M687.2,410a9.51,9.51,0,0,1-4.25-1,12.29,12.29,0,0,1-3.56-2.66,11.89,11.89,0,0,1-2.41-3.91,13.75,13.75,0,0,1-.86-4.92V346.12a13.47,13.47,0,0,1,.86-4.82,12.51,12.51,0,0,1,2.42-4,11.21,11.21,0,0,1,3.52-2.64,9.92,9.92,0,0,1,4.27-.92,10.33,10.33,0,0,1,4.29.92,10.47,10.47,0,0,1,3.53,2.61,13.71,13.71,0,0,1,2.44,4,12.88,12.88,0,0,1,.9,4.8v2.36h-3.9v-2.86a7.72,7.72,0,0,0-2.1-5.44,6.83,6.83,0,0,0-5.15-2.29,6.68,6.68,0,0,0-5.12,2.3,7.82,7.82,0,0,0-2,5.43v52.51a8,8,0,0,0,2,5.47,6.62,6.62,0,0,0,5.13,2.37,6.76,6.76,0,0,0,5.16-2.35,7.9,7.9,0,0,0,2.08-5.49v-2.76h3.92v2.26a13.12,13.12,0,0,1-3.33,8.84,11.4,11.4,0,0,1-3.57,2.64A9.89,9.89,0,0,1,687.2,410Z" transform="translate(-115.13 -114.52)" fill="#1a1a1a"/><path d="M717.71,410a9.51,9.51,0,0,1-4.25-1,12.3,12.3,0,0,1-3.56-2.62,11.88,11.88,0,0,1-2.4-3.91,13.73,13.73,0,0,1-.86-4.92v-2.26h3.92v2.76a8,8,0,0,0,2,5.47,6.63,6.63,0,0,0,5.13,2.37,6.76,6.76,0,0,0,5.16-2.35,7.9,7.9,0,0,0,2.08-5.48,11,11,0,0,0-.31-2.29,36,36,0,0,0-1.43-4.39l-14.46-37.34c-.83-2.22-1.4-3.91-1.68-5a11.57,11.57,0,0,1-.41-2.91,13.47,13.47,0,0,1,.86-4.82,12.54,12.54,0,0,1,2.42-4,11.23,11.23,0,0,1,3.52-2.63,9.93,9.93,0,0,1,4.27-.92,10.33,10.33,0,0,1,4.29.92,10.47,10.47,0,0,1,3.54,2.61,13.71,13.71,0,0,1,2.44,4,12.87,12.87,0,0,1,.9,4.8v2.36h-3.94V345.6a7.72,7.72,0,0,0-2.1-5.44,6.83,6.83,0,0,0-5.15-2.29,6.69,6.69,0,0,0-5.12,2.3,7.83,7.83,0,0,0-2,5.43,9.82,9.82,0,0,0,.37,2.33c.23.9.71,2.32,1.46,4.34l14.39,37.34c.83,2.22,1.4,3.92,1.69,5a11.68,11.68,0,0,1,.41,2.91,13.1,13.1,0,0,1-3.33,8.84A11.41,11.41,0,0,1,722,409,9.9,9.9,0,0,1,717.71,410Z" transform="translate(-115.13 -114.52)" fill="#1a1a1a"/><path d="M421.62,117.45c1.08,0,2.16,0,3.24.05a92.17,92.17,0,0,1,72,145,3,3,0,0,0,.19,3.63c5.52,6.31,6.4,15.19,6,22.18-4.43-6.55-11.69-9.73-18.35-10.34h-.29a2.94,2.94,0,0,0-2,.73,91.53,91.53,0,0,1-60.7,23.08c-1.08,0-2.16,0-3.24-.05-50.79-1.74-89.45-44.38-87.71-95.24,1.7-49.63,41.27-89,90.86-89m-.13-3a95.11,95.11,0,0,0-3.24,190.11q1.66.05,3.32.05a94.48,94.48,0,0,0,62.69-23.78c3.82.38,18.13,2.9,19.79,19.29,0,0,6.81-22.7-4.86-36a95.11,95.11,0,0,0-74.4-149.6c-1.08,0-2.23-.05-3.33-.05h0Z" transform="translate(-115.13 -114.52)" fill="#1a1a1a"/><g opacity="0.95"><path d="M405.63,276.24l-10.47-10.61-6.11-8.37-6.6-17.16-.59-27.2-2.38-8.13-2-22L373,177.84l5.08-2.16-2.91-6.91,5.24,1.08,3.7-12.54,11.4-5.16,5.4-7.06,3.47,3.53,10.72-10,4.74,7L432,136.87l-.94,9.34,10.42-5.8.25,3.24a1.92,1.92,0,0,0,.54,1.2l11.34,11.76,7.3-2.09v6.37L469.21,176l-1.15,16.21-3.18,14.05-1.66-5.63-3.52-9.23-2.64-2,.77-3.69L454.67,182l3.65-1.42-4.67-7.3L435,168.09,430.5,173l-17.29-6.32-22,6.28,1.89,12.38-8.93,10.89-.72,11.32h.21c2.57-.16,3.94-.22,4.1-.24l5.4-.86c7.15-1.56,19-.74,21.91-.29a21.13,21.13,0,0,1,4.07.93,36,36,0,0,1,5.06-.46h.21c.81,0,4.32.39,4.92.5.93-.2,2-.28,2.83-.4,4.51-.63,15.17-1.37,23.26.61l5.4,1c.12,0,.79.48.79.62l-.08,2.76-.76.57c-.56.14-1.08,1.08-1.48,2.5v.11c-.12.73-.28,1.48-.42,2.16l-.17.81c-.78,3.82-2,5.24-5.2,5.88-4.32.92-15,1.15-18.46.23-3-.69-5.1-1.19-6.26-4.53a33.42,33.42,0,0,1-1.29-7.28,10.32,10.32,0,0,0-.42-2.87c-.39-.48-1.19-.69-2.69-.72H424a4.26,4.26,0,0,0-2.3.59,6.42,6.42,0,0,0-.49,2.7,33.16,33.16,0,0,1-1.28,7.25c-1.16,3.31-3.46,3.8-6.14,4.39-3.27.46-11.7,1-18.61-.64-3.16-.69-4.43-2.16-5.22-6l-.16-.78c-.15-.7-.31-1.44-.43-2.16v-.11c-.18-.68-.68-2.28-1.44-2.42l-4.4-1.12h-.22l-.11,1.71.65,26.73,9.2,18.82,9.81,6.56.18-19.55,7.57-7.4L418.7,234l10.36.4,8.29,3.24,6.11,7.17,2.31,19.87,9.23-7.12,8.21-19.39,1.33-18.91.13,8.37.21,12.81L458,257.88l-13.11,16.21-17.2,7.63-8.87-.86Zm1.3-31.12-.84,9,1.7,13.6,15-3-3.64-8.21,10.42.54-5,7.76,16.59,2.91.91-13.37-1.39-8.34L431,240.3l-6.6,1.25L419,240.35ZM434.11,208c-4.06.5-5.3.65-5.09,4.2a27.89,27.89,0,0,0,1.15,6.31c1,2.62,2.78,3,5.31,3.6,5.4,1.2,14.67.38,17.28-.21s3.72-1.59,4.39-4.74l.16-.75a13.12,13.12,0,0,0,.51-4.6c-.43-2.5-2-2.83-4.22-3.24l-.67-.14C444.62,206.77,434.11,208,434.11,208ZM395,207.93c-2,.46-3.79.73-4.23,3.24a13.21,13.21,0,0,0,.51,4.62l.16.75c.67,3.16,1.65,4.24,4.39,4.81a57.6,57.6,0,0,0,17.23.54c2.48-.52,4.41-.92,5.4-3.52a27.75,27.75,0,0,0,1.16-6.3c.21-3.55-1.08-3.73-5.08-4.32C414.51,207.73,401.69,206.37,395,207.93Z" transform="translate(-115.13 -114.52)" fill="#1c1c1b"/></g><path d="M610.56,440v23.07H233.45V440H610.56m1.37-1.37H232.09v25.8H611.93v-25.8Z" transform="translate(-115.13 -114.52)" fill="#1a1a1a"/><rect x="130.86" y="331.72" width="1.45" height="10.57" fill="#1a1a1a"/><polygon points="137.55 342.28 137.55 331.72 139 331.72 139 340.84 142.78 340.84 142.78 342.28 137.55 342.28" fill="#1a1a1a"/><polygon points="147.31 342.28 147.31 331.72 148.76 331.72 148.76 340.84 152.54 340.84 152.54 342.28 147.31 342.28" fill="#1a1a1a"/><path d="M275.07,457c-2.25,0-3.39-1.62-3.39-4.82v-5.94h1.45v6.09c0,2.15.64,3.19,1.94,3.19s2-1,2-3.19v-6.09h1.39v5.94C278.43,455.38,277.3,457,275.07,457Z" transform="translate(-115.13 -114.52)" fill="#1a1a1a"/><path d="M286.05,457a4.29,4.29,0,0,1-3.17-1.5l.84-1.16a3.45,3.45,0,0,0,2.38,1.17c1,0,1.68-.56,1.68-1.46s-.61-1.23-1.45-1.64l-1.26-.65a2.92,2.92,0,0,1-1.8-2.78,2.89,2.89,0,0,1,3-2.94,3.69,3.69,0,0,1,2.71,1.28l-.74,1.08a2.74,2.74,0,0,0-2-.87,1.33,1.33,0,0,0-1.51,1.35c0,.87.7,1.2,1.44,1.56l1.29.63a2.88,2.88,0,0,1,1.8,2.83A3,3,0,0,1,286.05,457Z" transform="translate(-115.13 -114.52)" fill="#1a1a1a"/><polygon points="180.28 342.28 180.28 333.15 177.64 333.15 177.64 331.72 184.35 331.72 184.35 333.15 181.72 333.15 181.72 342.28 180.28 342.28" fill="#1a1a1a"/><path d="M308.82,456.8l-1.89-4.15-1.54,0v4.2h-1.45V446.23h3c2.18,0,3.28,1,3.28,3.1a2.93,2.93,0,0,1-1.78,3l-.08,0,2.16,4.44Zm-3.44-5.54h1.37a1.76,1.76,0,0,0,2-1.92c0-1.21-.62-1.74-2-1.74h-1.37Z" transform="translate(-115.13 -114.52)" fill="#1a1a1a"/><path d="M319.83,456.8l-.71-2.91h-3.19l-.71,2.91h-1.48l2.94-10.57h1.77l2.93,10.57Zm-2.43-9.19c-.23,1.09-.5,2.36-.81,3.54l-.35,1.42h2.55l-.35-1.42c-.28-1.13-.56-2.36-.82-3.54l0-.07h-.14Z" transform="translate(-115.13 -114.52)" fill="#1a1a1a"/><polygon points="211.6 342.28 211.6 333.15 208.96 333.15 208.96 331.72 215.67 331.72 215.67 333.15 213.05 333.15 213.05 342.28 211.6 342.28" fill="#1a1a1a"/><rect x="220.12" y="331.72" width="1.45" height="10.57" fill="#1a1a1a"/><path d="M345.4,457c-2.4,0-4-2.17-4-5.53s1.55-5.43,4-5.43,3.94,2.13,3.94,5.43S347.79,457,345.4,457Zm0-9.47c-1.52,0-2.46,1.51-2.46,3.94s1,4,2.46,4,2.44-1.59,2.44-4S346.91,447.53,345.4,447.53Z" transform="translate(-115.13 -114.52)" fill="#1a1a1a"/><path d="M359.18,456.8l-2.76-6-1-2.33h-.2l.06.77c.08,1,.16,2,.16,2.94v4.61H354.1V446.23h1.58l2.76,6,1,2.33h.2l0-.62c-.08-1-.17-2.12-.17-3.12v-4.58h1.37V456.8Z" transform="translate(-115.13 -114.52)" fill="#1a1a1a"/><path d="M373.73,457a2.76,2.76,0,0,1-2.83-2.94,3.67,3.67,0,0,1,1.71-3l.05,0,0-.06a5.65,5.65,0,0,1-.58-2.33,2.35,2.35,0,0,1,2.22-2.59,1.94,1.94,0,0,1,1.93,2.2c0,1.33-.88,2.17-2,3.05l-.06,0,0,.06a12.23,12.23,0,0,0,2.1,2.48l.07.07.05-.08a9,9,0,0,0,1.15-2.82h1.3a12.38,12.38,0,0,1-1.53,3.6l0,.07.07,0a5.37,5.37,0,0,0,1.59.85l-.36,1.38a6.77,6.77,0,0,1-2.11-1.11l-.06,0-.05.05A3.76,3.76,0,0,1,373.73,457Zm-.56-4.79a2.37,2.37,0,0,0-.91,1.74,1.64,1.64,0,0,0,1.66,1.76,2.41,2.41,0,0,0,1.52-.66l.07-.06-.07-.07a14.4,14.4,0,0,1-2.15-2.69l-.05-.09Zm1.12-5.06c-.63,0-1.06.6-1.06,1.46a4.39,4.39,0,0,0,.37,1.61l0,.1.09-.07c.73-.54,1.39-1.1,1.39-2C375.12,447.55,374.82,447.15,374.29,447.15Z" transform="translate(-115.13 -114.52)" fill="#1a1a1a"/><polygon points="279.19 342.28 276.75 337.14 275.35 339.19 275.34 342.28 273.89 342.28 273.89 331.72 275.34 331.72 275.34 336.59 275.47 336.59 275.54 336.55 278.79 331.68 280.35 331.71 277.63 335.77 280.85 342.28 279.19 342.28" fill="#1a1a1a"/><path d="M403.21,457c-2.4,0-3.95-2.17-3.95-5.53s1.55-5.43,3.95-5.43,3.94,2.13,3.94,5.43S405.6,457,403.21,457Zm0-9.47c-1.52,0-2.46,1.51-2.46,3.94s1,4,2.46,4,2.44-1.59,2.44-4S404.72,447.53,403.21,447.53Z" transform="translate(-115.13 -114.52)" fill="#1a1a1a"/><path d="M418.46,456.8V452c0-.95.11-2.28.2-3.25l0-.25h-.16l-.07.06L417.7,451l-1.56,4.82h-.62L414,451l-.74-2.5h-.15l0,.09,0,.62c.07.88.15,2,.15,2.79v4.82h-1.31V446.23h1.63l1.63,5.23.62,2.1h.13l.07-.06.6-2,1.59-5.23h1.64V456.8Z" transform="translate(-115.13 -114.52)" fill="#1a1a1a"/><path d="M431.61,456.8V452c0-1,.12-2.32.2-3.3l0-.2h-.16l-.07.06-.74,2.45-1.56,4.82h-.62L427.12,451l-.74-2.5h-.15l0,.09,0,.63c.07.88.15,2,.15,2.77v4.82h-1.31V446.23h1.63l1.63,5.23.62,2.1h.13l.07-.06.6-2,1.59-5.23H433V456.8Z" transform="translate(-115.13 -114.52)" fill="#1a1a1a"/><path d="M441.54,457c-2.25,0-3.39-1.62-3.39-4.82v-5.94h1.45v6.09c0,2.15.63,3.19,1.94,3.19s2-1,2-3.19v-6.09h1.39v5.94C444.9,455.38,443.77,457,441.54,457Z" transform="translate(-115.13 -114.52)" fill="#1a1a1a"/><path d="M455.18,456.8l-2.76-6-1-2.33h-.2l.06.8c.08,1,.15,2,.15,2.92v4.61H450.1V446.23h1.58l2.76,6,1,2.33h.2l-.05-.66c-.08-1-.17-2.09-.17-3.09v-4.58h1.37V456.8Z" transform="translate(-115.13 -114.52)" fill="#1a1a1a"/><rect x="346.87" y="331.72" width="1.45" height="10.57" fill="#1a1a1a"/><polygon points="358.87 342.28 356.42 337.14 355.02 339.19 355.01 342.28 353.56 342.28 353.56 331.72 355.01 331.72 355.01 336.59 355.14 336.59 355.21 336.55 358.46 331.68 360.02 331.71 357.3 335.77 360.51 342.28 358.87 342.28" fill="#1a1a1a"/><path d="M484.56,456.8l-.71-2.91h-3.19l-.71,2.91h-1.48l2.94-10.57h1.77l2.93,10.57Zm-2.42-9.19c-.23,1.08-.5,2.35-.81,3.54l-.35,1.42h2.55l-.35-1.42c-.28-1.13-.56-2.36-.82-3.54v-.07h-.14Z" transform="translate(-115.13 -114.52)" fill="#1a1a1a"/><polygon points="376.33 342.28 376.33 333.15 373.69 333.15 373.69 331.72 380.4 331.72 380.4 333.15 377.78 333.15 377.78 342.28 376.33 342.28" fill="#1a1a1a"/><rect x="384.85" y="331.72" width="1.45" height="10.57" fill="#1a1a1a"/><path d="M510.13,457c-2.4,0-4-2.17-4-5.53s1.55-5.43,4-5.43,3.94,2.13,3.94,5.43S512.52,457,510.13,457Zm0-9.47c-1.52,0-2.46,1.51-2.46,3.94s1,4,2.46,4,2.44-1.59,2.44-4S511.64,447.53,510.13,447.53Z" transform="translate(-115.13 -114.52)" fill="#1a1a1a"/><path d="M523.91,456.8l-2.76-6-1-2.33H520l.06.8c.08,1,.15,2,.15,2.92v4.61h-1.37V446.23h1.58l2.76,6,1,2.33h.2l-.05-.66c-.08-1-.17-2.09-.17-3.09v-4.58h1.37V456.8Z" transform="translate(-115.13 -114.52)" fill="#1a1a1a"/><path d="M533.3,457a4.29,4.29,0,0,1-3.17-1.5l.84-1.16a3.45,3.45,0,0,0,2.38,1.17c1,0,1.68-.56,1.68-1.46s-.61-1.23-1.45-1.64l-1.26-.65a2.92,2.92,0,0,1-1.8-2.78,2.89,2.89,0,0,1,3-2.94,3.69,3.69,0,0,1,2.71,1.28l-.74,1.08a2.74,2.74,0,0,0-2-.87,1.33,1.33,0,0,0-1.51,1.35c0,.87.7,1.2,1.44,1.56l1.29.63a2.88,2.88,0,0,1,1.8,2.83A3,3,0,0,1,533.3,457Z" transform="translate(-115.13 -114.52)" fill="#1a1a1a"/><path d="M541.09,456.8V446.23h2.34c2.82,0,4.37,1.86,4.37,5.23s-1.56,5.33-4.29,5.33Zm1.45-1.37h.78c2,0,3-1.37,3-4s-1-3.86-3-3.86h-.78Z" transform="translate(-115.13 -114.52)" fill="#1a1a1a"/><polygon points="437.45 342.28 437.45 331.72 442.76 331.72 442.76 333.15 438.9 333.15 438.9 336.07 442.18 336.07 442.18 337.51 438.9 337.51 438.9 340.84 442.9 340.84 442.9 342.28 437.45 342.28" fill="#1a1a1a"/><path d="M565.39,457a4.29,4.29,0,0,1-3.17-1.5l.84-1.16a3.45,3.45,0,0,0,2.38,1.17c1,0,1.68-.56,1.68-1.46s-.61-1.23-1.45-1.64l-1.26-.65a2.92,2.92,0,0,1-1.8-2.78,2.89,2.89,0,0,1,3-2.94,3.69,3.69,0,0,1,2.71,1.28l-.74,1.08a2.74,2.74,0,0,0-2-.87,1.33,1.33,0,0,0-1.51,1.35c0,.87.7,1.2,1.44,1.56l1.29.63a2.88,2.88,0,0,1,1.8,2.83A3,3,0,0,1,565.39,457Z" transform="translate(-115.13 -114.52)" fill="#1a1a1a"/><rect x="458.05" y="331.72" width="1.45" height="10.57" fill="#1a1a1a"/><path d="M583.56,457c-2.54,0-4.19-2.14-4.19-5.45s1.72-5.51,4.27-5.51a3.34,3.34,0,0,1,2.61,1.28l-.79,1a2.27,2.27,0,0,0-1.81-.84c-1.7,0-2.79,1.56-2.79,4s1.05,4,2.89,4a1.89,1.89,0,0,0,1.36-.5l0-2.46h-1.72v-1.39h3v4.64A4.12,4.12,0,0,1,583.56,457Z" transform="translate(-115.13 -114.52)" fill="#1a1a1a"/><path d="M596.45,456.8l-2.76-6-1-2.33h-.2l.06.8c.08,1,.15,2,.15,2.92v4.61h-1.37V446.23h1.58l2.76,6,1,2.33h.2l-.05-.66c-.08-1-.17-2.09-.17-3.09v-4.58H598V456.8Z" transform="translate(-115.13 -114.52)" fill="#1a1a1a"/></svg>